<?xml version="1.0" encoding="utf-8"?>
<!-- Generator: Adobe Illustrator 27.0.0, SVG Export Plug-In . SVG Version: 6.00 Build 0)  -->
<svg version="1.1" id="Capa_1" xmlns="http://www.w3.org/2000/svg" xmlns:xlink="http://www.w3.org/1999/xlink" x="0px" y="0px"
	 viewBox="0 0 1105 498.9" style="enable-background:new 0 0 1105 498.9;" xml:space="preserve">
<style type="text/css">
	.st0{fill:#173070;stroke:#173070;stroke-width:1.5467;stroke-miterlimit:22.9256;}
	.st1{fill-rule:evenodd;clip-rule:evenodd;fill:#A12D52;}
	.st2{fill-rule:evenodd;clip-rule:evenodd;fill:#173070;}
	.st3{fill:#173070;}
	.st4{fill:#333333;}
</style>
<g>
	<path class="st0" d="M87.2,412.7c-9.6,0-19.2-1.4-28.7-4.3c-9.5-2.8-17.9-7-25.4-12.5c-7.5-5.5-13.5-12.4-18-20.7
		c-4.5-8.3-6.8-18.1-6.8-29.2v-73.2c0-11,2.2-20.6,6.7-29c4.4-8.3,10.4-15.3,17.7-20.9c7.4-5.6,15.8-9.8,25.3-12.6
		c9.5-2.8,19.2-4.3,29.2-4.3c6.6,0,13.3,0.9,20.2,2.6c6.8,1.7,13.3,4.4,19.6,7.9c6.2,3.6,12,8.1,17.2,13.5
		c5.2,5.4,9.5,11.8,12.9,19.2l-33.5,18.2c-4-7.6-9.7-13.1-17-16.5c-6.8-3.4-13.9-5.1-21.3-5.1c-0.4,0-0.8,0-1.1,0
		c-4.5,0-8.8,0.7-12.9,2c-4.1,1.3-7.7,3.1-10.9,5.4c-3.2,2.3-5.8,5.1-7.7,8.4c-1.9,3.3-2.8,7-2.8,11.2V346c0,4.2,0.9,7.9,2.7,11.1
		c1.8,3.2,4.3,6,7.4,8.2c3.1,2.3,6.7,4,10.8,5.3c4.1,1.2,8.3,1.8,12.6,1.8c0.4,0,0.8,0,1.1,0c7.2,0,14.3-1.7,21.3-5.1
		c7.4-3.4,13.1-9,17-16.7l36,20.2c-8.7,14.2-19.4,24.7-32.2,31.6C113.8,409.3,100.7,412.7,87.2,412.7L87.2,412.7z"/>
	<path class="st0" d="M170.4,208.9h79.2c16.1,0,29.4,3.5,40,10.4c10.6,6.9,18.5,15.5,23.8,25.8c5.3,10.3,7.9,21.4,7.9,33.4
		c0,11.9-2.7,23-8.1,33.3c-5.4,10.3-13.4,18.9-24,25.7c-10.6,6.8-23.7,10.2-39.5,10.2h-38v62.2h-41.4V208.9L170.4,208.9z
		 M249.6,308.6c6.8,0,12.5-1.4,17-4.3c4.5-2.8,7.9-6.4,10.2-10.6c2.3-4.3,3.4-8.9,3.4-13.9c0-5-1.1-9.6-3.4-13.9
		c-2.3-4.3-5.7-7.8-10.2-10.6c-4.5-2.8-10.2-4.3-17-4.3h-37.7v57.6H249.6L249.6,308.6z"/>
	<path class="st0" d="M401.7,372.4c7.4,0,13.9-1.7,19.6-5.1c6.2-3.6,9.4-9.2,9.4-16.7c0-3.8-0.9-6.9-2.8-9.4c-2.1-2.8-4.9-5.2-8.4-7
		c-3.5-1.8-7.7-3.2-12.5-4.1c-4.8-0.9-9.8-1.8-14.9-2.6c-7.9-1.1-15.8-3-23.4-5.7c-7.7-2.6-14.5-6.4-20.4-11.4
		c-6-4.9-10.7-11.2-14.3-18.7c-3.6-7.2-5.4-16-5.4-26.4c0-0.6,0-1.1,0-1.7c0.6-9.5,3-17.8,7.4-25.1s9.9-13.3,16.6-18.2
		c6.7-4.8,14.3-8.5,22.8-10.9c8.5-2.5,17.3-3.7,26.4-3.7c13.1,0,25.5,2.7,37.3,8.2c11.8,5.5,22,14.6,30.5,27.2l-34.3,23
		c-4.4-6.6-9.4-11.4-15-14.5c-5.7-3-11.8-4.5-18.4-4.5c-4,0-7.8,0.4-11.4,1.1c-3.6,0.8-6.8,1.9-9.7,3.5c-2.8,1.6-5.1,3.7-6.8,6.2
		c-1.7,2.6-2.7,5.5-2.8,8.9v0.3c0,4.2,1,7.5,3,9.9c2,2.5,4.6,4.5,7.8,6.1c3.2,1.6,6.9,2.8,11.1,3.7c4.2,0.9,8.4,1.7,12.8,2.7
		c8.7,1.7,17.2,3.9,25.4,6.5c8.2,2.6,15.5,6.5,21.9,11.5c6.3,5,11.3,11.4,14.9,19.2c3.2,6.8,4.8,15.1,4.8,25c0,1.5,0,3,0,4.5
		c-0.9,9.5-3.7,17.8-8.2,25c-4.5,7.2-10.4,13.2-17.5,18.2c-7.1,4.9-15,8.7-23.8,11.2c-8.8,2.6-17.7,3.8-26.8,3.8
		c-13.1,0-25.8-3.2-38.3-9.5c-12.5-6.3-23-15.9-31.5-28.8l31.5-24.1c4.5,7.2,10.8,12.6,18.7,16.3c7.9,3.7,15.8,5.6,23.6,5.8
		C400.8,372.4,401.3,372.4,401.7,372.4L401.7,372.4z"/>
	<path class="st1" d="M208.1,29.3c43.5-1.4,84.1,10,116.6,30.2c-50.2-8.4-107.7-3-162.2,18.4c-64.4,25.4-110.7,67.8-131,113.7
		c-0.1-1-0.1-2-0.2-3C27.5,103.8,106.6,32.5,208.1,29.3L208.1,29.3z"/>
	<path class="st2" d="M370.2,105.1c34.4,22,56.8,52.3,66.2,85c-32-33.1-80.3-59.3-138.5-71.5c-68.9-14.4-137-6.1-187.9,18.6
		c0.7-0.8,1.4-1.6,2.1-2.4C174.4,67.2,289.9,53.8,370.2,105.1L370.2,105.1z"/>
	<path class="st3" d="M97.3,438.2h12.4c1.9,0,3.6,0.3,5,0.9c1.4,0.6,2.6,1.5,3.6,2.5c0.9,1,1.7,2.2,2.1,3.5c0.5,1.3,0.7,2.7,0.7,4
		c0,1.4-0.2,2.7-0.7,4.1c-0.5,1.3-1.2,2.5-2.1,3.5c-0.9,1-2.1,1.8-3.5,2.5c-1.4,0.6-3.1,0.9-4.9,0.9h-4.6v9.1h-7.9V438.2L97.3,438.2
		z M109.7,453.2c0.8,0,1.4-0.2,2-0.6c0.5-0.4,0.9-0.9,1.2-1.4c0.3-0.6,0.4-1.2,0.4-1.8c0-0.7-0.1-1.3-0.4-1.8
		c-0.3-0.6-0.7-1-1.2-1.4c-0.5-0.4-1.2-0.6-2-0.6h-4.6v7.7H109.7L109.7,453.2z M177,469.7c-1.5,0-3-0.2-4.5-0.7
		c-1.5-0.4-2.8-1.1-3.9-2c-1.2-0.9-2.1-2-2.8-3.3c-0.7-1.3-1.1-2.9-1.1-4.6v-10.7c0-1.8,0.3-3.3,1.1-4.6c0.7-1.3,1.6-2.4,2.8-3.3
		c1.2-0.9,2.5-1.5,4-2c1.5-0.5,3-0.7,4.6-0.7c1,0,2,0.1,3,0.3c1,0.2,2,0.6,3,1.2c1,0.5,1.9,1.3,2.7,2.2c0.9,0.9,1.6,2.1,2.2,3.4
		l-6.4,2.6c-0.5-1-1.3-1.6-2.3-2c-0.8-0.3-1.6-0.5-2.3-0.5c-0.2,0-0.5,0-0.7,0c-1,0.1-1.9,0.5-2.6,1c-0.7,0.6-1.1,1.3-1.1,2.3v10.7
		c0,0.9,0.4,1.7,1.1,2.3c0.7,0.6,1.6,0.9,2.6,1c0.2,0,0.4,0,0.5,0c0.8,0,1.6-0.2,2.4-0.6c0.9-0.4,1.6-1.2,2.1-2.2l6.8,3.2
		c-0.6,1.3-1.4,2.3-2.3,3.2c-0.9,0.9-1.8,1.6-2.8,2.2c-1,0.6-2,1-3.1,1.2C179,469.6,178,469.7,177,469.7L177,469.7z M240.1,450.4
		h12.6v6.8h-12.6v4.6h13.7v7.4h-21.6v-31h21.6v7.4h-13.7V450.4L240.1,450.4z M307.1,450.4h12.6v6.8h-12.6v4.6h13.7v7.4h-21.6v-31
		h21.6v7.4h-13.7V450.4L307.1,450.4z M374,459.4v9.9h-7.9v-31h12.4c1.6,0,3.1,0.2,4.5,0.6c1.4,0.4,2.6,1,3.6,1.8
		c1,0.8,1.9,1.9,2.5,3.2c0.6,1.3,0.9,2.9,1,4.7c0,2.9-0.5,5.2-1.6,6.8c-1.1,1.7-2.6,2.8-4.5,3.4l8.5,10.7h-9.8l-7.2-9.9H374
		L374,459.4z M378.6,452.7c0.8,0,1.5-0.2,2.1-0.5c0.6-0.3,1-0.8,1.2-1.3c0.3-0.5,0.4-1.1,0.4-1.7c0-0.6-0.1-1.2-0.4-1.7
		c-0.3-0.5-0.7-1-1.2-1.3c-0.6-0.3-1.2-0.5-2.1-0.5H374v7.1H378.6L378.6,452.7z"/>
	<path class="st3" d="M544.9,225.7c-2,0-4-0.3-5.9-0.9c-1.9-0.6-3.7-1.5-5.2-2.6c-1.5-1.2-2.8-2.7-3.7-4.4c-0.9-1.8-1.4-3.8-1.4-6.1
		v-14.2c0-2.3,0.5-4.4,1.4-6.1c0.9-1.8,2.2-3.2,3.7-4.4c1.5-1.2,3.3-2,5.3-2.6c2-0.6,4-0.9,6.1-0.9c1.3,0,2.6,0.2,4,0.5
		c1.4,0.3,2.7,0.8,4,1.5c1.3,0.7,2.5,1.7,3.6,2.9c1.1,1.2,2.1,2.7,2.9,4.6l-8.5,3.4c-0.7-1.3-1.7-2.2-3-2.7c-1-0.4-2.1-0.6-3.1-0.6
		c-0.3,0-0.6,0-0.9,0.1c-1.3,0.2-2.5,0.6-3.5,1.4c-1,0.8-1.5,1.8-1.5,3.1v14.2c0,1.2,0.5,2.2,1.5,3c1,0.8,2.1,1.2,3.5,1.3
		c0.2,0,0.5,0.1,0.7,0.1c1.1,0,2.2-0.3,3.2-0.8c1.2-0.5,2.2-1.5,2.7-3l9.1,4.2c-0.8,1.7-1.9,3.1-3,4.3c-1.2,1.2-2.4,2.1-3.7,2.9
		c-1.3,0.7-2.7,1.3-4.1,1.6C547.5,225.5,546.1,225.7,544.9,225.7L544.9,225.7z M596.9,225.1h-11.2l-2.7-8.3h-11l-2.6,8.3h-11.2
		l14.4-41.2h9.5L596.9,225.1L596.9,225.1z M580.6,207.6l-2.9-12h-0.3l-3,12H580.6L580.6,207.6z M610.6,215.6c1.3,0,2.4-0.4,3.5-1.1
		c1-0.7,1.5-1.7,1.5-2.9v-18.3h-9.4v-9.4h19.7v27.7c0,2.2-0.4,4.2-1.3,6c-0.9,1.7-2.1,3.2-3.5,4.4c-1.5,1.2-3.2,2.1-5,2.7
		c-1.9,0.6-3.8,0.9-5.8,0.9c-1.8,0-3.5-0.3-5.2-0.8c-1.7-0.5-3.3-1.3-4.7-2.3c-1.4-1-2.6-2.4-3.5-4c-1-1.6-1.6-3.5-1.9-5.6l9.8-2
		c0.3,1.7,1,2.9,2.2,3.6C608.1,215.3,609.3,215.6,610.6,215.6L610.6,215.6z M664.7,225.1h-11.2l-2.7-8.3h-11l-2.6,8.3h-11.2
		l14.4-41.2h9.5L664.7,225.1L664.7,225.1z M648.3,207.6l-2.9-12h-0.3l-3,12H648.3L648.3,207.6z M690.6,183.9c2.1,0,4,0.3,6,0.8
		c1.9,0.5,3.6,1.4,5.1,2.5c1.5,1.1,2.7,2.6,3.6,4.3c0.9,1.7,1.3,3.8,1.3,6.2v13.8c0,2.4-0.4,4.4-1.3,6.1c-0.9,1.7-2.1,3.1-3.6,4.2
		c-1.5,1.1-3.2,1.9-5.1,2.4c-1.9,0.5-3.9,0.8-6,0.8h-15.4v-41.2H690.6L690.6,183.9z M691,215.3c1.8,0,3.1-0.4,3.9-1.2
		c0.8-0.8,1.2-1.9,1.2-3.3V198c0-1.4-0.4-2.4-1.3-3.2c-0.9-0.8-2.2-1.2-3.9-1.2h-5.3v21.7H691L691,215.3z M721.5,200.1h16.7v9h-16.7
		v6.2h18.1v9.8H711v-41.2h28.7v9.8h-18.1V200.1L721.5,200.1z M529.6,240.3h16.5c2.5,0,4.7,0.4,6.6,1.3c1.9,0.8,3.5,1.9,4.7,3.3
		c1.3,1.4,2.2,2.9,2.8,4.7c0.6,1.7,0.9,3.5,0.9,5.4c0,1.8-0.3,3.6-1,5.4c-0.6,1.8-1.6,3.3-2.8,4.7c-1.2,1.4-2.8,2.5-4.7,3.3
		c-1.9,0.8-4.1,1.3-6.5,1.3H540v12h-10.4V240.3L529.6,240.3z M546.1,260.2c1,0,1.9-0.3,2.6-0.8c0.7-0.5,1.2-1.1,1.6-1.9
		c0.3-0.8,0.5-1.6,0.5-2.4c0-0.9-0.2-1.7-0.5-2.4c-0.3-0.8-0.9-1.4-1.6-1.9c-0.7-0.5-1.6-0.8-2.6-0.8H540v10.2H546.1L546.1,260.2z
		 M574.9,268.4v13.1h-10.5v-41.2h16.5c2.1,0,4.1,0.3,5.9,0.8c1.8,0.5,3.4,1.3,4.8,2.4c1.4,1.1,2.5,2.5,3.3,4.2
		c0.8,1.7,1.2,3.8,1.3,6.2c0,3.8-0.7,6.9-2.2,9c-1.4,2.2-3.4,3.7-5.9,4.5l11.2,14.1h-13l-9.5-13.1H574.9L574.9,268.4z M581,259.5
		c1.1,0,2-0.2,2.7-0.7c0.7-0.5,1.3-1,1.7-1.7c0.4-0.7,0.6-1.5,0.6-2.3c0-0.8-0.2-1.6-0.6-2.3c-0.4-0.7-0.9-1.3-1.7-1.7
		c-0.7-0.5-1.6-0.7-2.7-0.7h-6.1v9.4H581L581,259.5z M611.2,256.5h16.7v9h-16.7v6.2h18.1v9.8h-28.7v-41.2h28.7v9.8h-18.1V256.5
		L611.2,256.5z M657.9,240.3h11.2l-14.8,41.2h-9.5l-14.8-41.2h11.2l6.5,20.1l1.9,9.8h0.2l1.9-9.7L657.9,240.3L657.9,240.3z
		 M681,281.5h-10.4v-41.2H681V281.5L681,281.5z M699.5,272.4c1.2,0,2.3-0.2,3.2-0.7c1-0.5,1.6-1.3,1.7-2.4c0-0.6-0.2-1.1-0.6-1.6
		c-0.4-0.5-1-0.9-1.6-1.2c-0.7-0.3-1.4-0.6-2.3-0.8c-0.9-0.2-1.7-0.4-2.6-0.5c-1.7-0.3-3.3-0.7-4.8-1.4c-1.5-0.7-2.9-1.5-4-2.6
		c-1.2-1.1-2.1-2.4-2.8-3.9c-0.7-1.5-1-3.3-1-5.2c0-2,0.4-3.8,1.3-5.3c0.8-1.5,1.9-2.8,3.3-3.9c1.4-1,3-1.8,4.8-2.4
		c1.8-0.5,3.6-0.8,5.5-0.8c1.2,0,2.5,0.1,3.7,0.3c1.2,0.2,2.4,0.5,3.6,1c1.2,0.5,2.3,1.2,3.5,2c1.1,0.9,2.2,1.9,3.3,3.2l-6.8,5.2
		c-1.1-1.2-2.3-2-3.7-2.6c-1.3-0.5-2.6-0.8-3.7-0.8c0,0-0.1,0-0.1,0.1c-1.2,0-2.2,0.3-3.1,0.9c-0.8,0.6-1.3,1.5-1.3,2.7
		c0.1,1,0.6,1.8,1.6,2.4c1,0.6,2.3,1.1,3.9,1.4c1.8,0.3,3.6,0.8,5.4,1.3c1.8,0.5,3.3,1.3,4.7,2.4c1.3,1,2.4,2.4,3.2,4
		c0.7,1.4,1,3.2,1,5.3c0,0.3,0,0.7,0,1c-0.1,2-0.6,3.7-1.6,5.3c-1,1.5-2.3,2.8-3.8,3.9c-1.5,1-3.2,1.8-5.1,2.4
		c-1.9,0.5-3.8,0.8-5.7,0.8c-2.5,0-5-0.6-7.4-1.9c-2.5-1.2-4.7-3.1-6.6-5.6l6.6-6.2c1,1.2,2.3,2.2,3.8,2.9c1.5,0.7,3,1,4.4,1.1
		C699.2,272.4,699.4,272.4,699.5,272.4L699.5,272.4z M728.3,281.5h-10.4v-41.2h10.4V281.5L728.3,281.5z M752.7,237.4h-9l5.8-9.7
		h10.8L752.7,237.4L752.7,237.4z M732.6,253.9c0-2.4,0.5-4.4,1.5-6.2c1-1.8,2.3-3.2,3.9-4.4c1.6-1.2,3.4-2.1,5.5-2.6
		c2-0.6,4.1-0.9,6.3-0.9c2.1,0,4.2,0.3,6.3,0.9c2.1,0.6,3.9,1.5,5.5,2.6c1.6,1.2,2.9,2.7,3.9,4.4c1,1.8,1.5,3.8,1.5,6.2V268
		c0,2.4-0.5,4.4-1.5,6.2c-1,1.8-2.3,3.2-3.9,4.4c-1.6,1.2-3.4,2.1-5.5,2.6c-2,0.6-4.1,0.9-6.3,0.9c-2.1,0-4.2-0.3-6.3-0.9
		c-2.1-0.6-3.9-1.5-5.5-2.6c-1.6-1.2-2.9-2.7-3.9-4.4c-1-1.8-1.5-3.8-1.5-6.2V253.9L732.6,253.9z M743.1,268c0,0.8,0.2,1.4,0.6,2
		c0.4,0.5,0.9,1,1.5,1.4c0.6,0.4,1.3,0.7,2.2,0.8c0.8,0.2,1.6,0.3,2.4,0.3c0.8,0,1.6-0.1,2.4-0.3c0.8-0.2,1.5-0.5,2.1-0.8
		c0.6-0.4,1.1-0.8,1.5-1.4c0.4-0.6,0.6-1.2,0.6-1.9v-14.1c0-0.8-0.2-1.5-0.6-2.1c-0.4-0.6-0.9-1.1-1.5-1.4c-0.6-0.4-1.4-0.7-2.2-0.8
		c-0.8-0.2-1.6-0.3-2.5-0.3c-0.8,0-1.6,0.1-2.4,0.3c-0.8,0.2-1.5,0.5-2.1,0.9c-0.6,0.4-1.1,0.9-1.5,1.5c-0.4,0.6-0.6,1.2-0.6,2V268
		L743.1,268z M771.1,240.3h9.9l9.9,17.6l3.5,8.3l0.3-0.1c0,0-0.1-0.4-0.2-1.1c-0.1-0.7-0.3-1.6-0.4-2.4c-0.2-0.9-0.3-1.7-0.4-2.4
		l-0.2-1.1v-18.7h10.4v41.2h-10.5l-9.3-16.2l-3.6-8.3l-0.3,0.1l1.3,8v16.5h-10.4V240.3L771.1,240.3z M833,272.4
		c1.2,0,2.3-0.2,3.2-0.7c1-0.5,1.6-1.3,1.7-2.4c0-0.6-0.2-1.1-0.6-1.6c-0.4-0.5-1-0.9-1.6-1.2c-0.7-0.3-1.4-0.6-2.3-0.8
		s-1.7-0.4-2.6-0.5c-1.7-0.3-3.3-0.7-4.8-1.4c-1.5-0.7-2.9-1.5-4-2.6c-1.2-1.1-2.1-2.4-2.8-3.9c-0.7-1.5-1-3.3-1-5.2
		c0-2,0.4-3.8,1.3-5.3c0.8-1.5,1.9-2.8,3.3-3.9c1.4-1,3-1.8,4.8-2.4c1.8-0.5,3.6-0.8,5.5-0.8c1.2,0,2.5,0.1,3.7,0.3
		c1.2,0.2,2.4,0.5,3.6,1c1.2,0.5,2.3,1.2,3.5,2c1.1,0.9,2.2,1.9,3.3,3.2l-6.8,5.2c-1.1-1.2-2.3-2-3.7-2.6c-1.3-0.5-2.6-0.8-3.7-0.8
		c0,0-0.1,0-0.1,0.1c-1.2,0-2.2,0.3-3.1,0.9c-0.8,0.6-1.3,1.5-1.3,2.7c0.1,1,0.6,1.8,1.6,2.4c1,0.6,2.3,1.1,3.9,1.4
		c1.8,0.3,3.6,0.8,5.4,1.3c1.8,0.5,3.3,1.3,4.7,2.4c1.3,1,2.4,2.4,3.2,4c0.7,1.4,1,3.2,1,5.3c0,0.3,0,0.7,0,1
		c-0.1,2-0.6,3.7-1.6,5.3c-1,1.5-2.3,2.8-3.8,3.9c-1.5,1-3.2,1.8-5.1,2.4c-1.9,0.5-3.8,0.8-5.7,0.8c-2.5,0-5-0.6-7.4-1.9
		c-2.5-1.2-4.7-3.1-6.6-5.6l6.6-6.2c1,1.2,2.3,2.2,3.8,2.9c1.5,0.7,3,1,4.4,1.1C832.7,272.4,832.8,272.4,833,272.4L833,272.4z
		 M850.4,253.9c0-2.4,0.5-4.4,1.5-6.2c1-1.8,2.3-3.2,3.9-4.4c1.6-1.2,3.4-2.1,5.5-2.6c2-0.6,4.1-0.9,6.3-0.9c2.1,0,4.2,0.3,6.3,0.9
		c2.1,0.6,3.9,1.5,5.5,2.6c1.6,1.2,2.9,2.7,3.9,4.4c1,1.8,1.5,3.8,1.5,6.2V268c0,2.4-0.5,4.4-1.5,6.2c-1,1.8-2.3,3.2-3.9,4.4
		c-1.6,1.2-3.4,2.1-5.5,2.6c-2,0.6-4.1,0.9-6.3,0.9c-2.1,0-4.2-0.3-6.3-0.9c-2.1-0.6-3.9-1.5-5.5-2.6c-1.6-1.2-2.9-2.7-3.9-4.4
		c-1-1.8-1.5-3.8-1.5-6.2V253.9L850.4,253.9z M860.8,268c0,0.8,0.2,1.4,0.6,2c0.4,0.5,0.9,1,1.5,1.4c0.6,0.4,1.3,0.7,2.2,0.8
		c0.8,0.2,1.6,0.3,2.4,0.3c0.8,0,1.6-0.1,2.4-0.3c0.8-0.2,1.5-0.5,2.1-0.8c0.6-0.4,1.1-0.8,1.5-1.4c0.4-0.6,0.6-1.2,0.6-1.9v-14.1
		c0-0.8-0.2-1.5-0.6-2.1c-0.4-0.6-0.9-1.1-1.5-1.4c-0.6-0.4-1.4-0.7-2.2-0.8c-0.8-0.2-1.6-0.3-2.5-0.3c-0.8,0-1.6,0.1-2.4,0.3
		c-0.8,0.2-1.5,0.5-2.1,0.9c-0.6,0.4-1.1,0.9-1.5,1.5c-0.4,0.6-0.6,1.2-0.6,2V268L860.8,268z M904.1,282.1c-2,0-4-0.3-5.9-0.9
		c-1.9-0.6-3.7-1.5-5.2-2.6c-1.5-1.2-2.8-2.7-3.7-4.4c-0.9-1.8-1.4-3.8-1.4-6.1v-14.2c0-2.3,0.5-4.4,1.4-6.1
		c0.9-1.8,2.2-3.2,3.7-4.4c1.5-1.2,3.3-2,5.3-2.6c2-0.6,4-0.9,6.1-0.9c1.3,0,2.6,0.2,4,0.5c1.4,0.3,2.7,0.8,4,1.5
		c1.3,0.7,2.5,1.7,3.6,2.9c1.1,1.2,2.1,2.7,2.9,4.6l-8.5,3.4c-0.7-1.3-1.7-2.2-3-2.7c-1-0.4-2.1-0.6-3.1-0.6c-0.3,0-0.6,0-0.9,0.1
		c-1.3,0.2-2.5,0.6-3.5,1.4c-1,0.8-1.5,1.8-1.5,3.1V268c0,1.2,0.5,2.2,1.5,3c1,0.8,2.1,1.2,3.5,1.3c0.2,0,0.5,0.1,0.7,0.1
		c1.1,0,2.1-0.3,3.2-0.8c1.2-0.5,2.2-1.5,2.7-3l9.1,4.2c-0.9,1.7-1.9,3.1-3,4.3c-1.2,1.2-2.4,2.1-3.7,2.9c-1.3,0.7-2.7,1.3-4.1,1.6
		C906.7,281.9,905.4,282.1,904.1,282.1L904.1,282.1z M931.9,281.5h-10.4v-41.2h10.4V281.5L931.9,281.5z M972.1,281.5H961l-2.7-8.3
		h-11l-2.6,8.3h-11.2l14.4-41.2h9.5L972.1,281.5L972.1,281.5z M955.8,264l-2.9-12h-0.3l-3,12H955.8L955.8,264z M973.7,240.3h10.5
		v30.9h16.8v10.3h-27.2V240.3L973.7,240.3z"/>
	<path class="st4" d="M529.9,306h13.6c2,0,3.8,0.3,5.3,1c1.5,0.7,2.7,1.5,3.8,2.6c1,1.1,1.8,2.3,2.3,3.7c0.5,1.4,0.8,2.8,0.8,4.2
		c0,1.4-0.3,2.8-0.8,4.2c-0.5,1.4-1.3,2.6-2.3,3.6c-1,1.1-2.3,1.9-3.8,2.6c-1.5,0.7-3.2,1-5.2,1h-9.5v12.9h-4.2V306L529.9,306z
		 M543.6,324.6c1.3,0,2.5-0.2,3.5-0.6c1-0.4,1.8-0.9,2.5-1.6c0.7-0.7,1.1-1.4,1.5-2.3c0.3-0.9,0.5-1.7,0.5-2.6
		c0-0.9-0.2-1.8-0.5-2.6c-0.3-0.9-0.8-1.6-1.5-2.3c-0.7-0.7-1.5-1.2-2.4-1.6c-1-0.4-2.1-0.6-3.4-0.6h-9.4v14.4H543.6L543.6,324.6z
		 M584,341.7h-4.4l-4.1-11.5h-13.8c-0.7,1.9-1.4,3.8-2,5.7c-0.7,1.9-1.4,3.8-2,5.7h-4.5l12.8-35.7h5.1L584,341.7L584,341.7z
		 M574,326c-0.5-1.4-1-2.7-1.4-3.9c-0.4-1.2-0.9-2.5-1.3-3.7c-0.4-1.2-0.9-2.5-1.3-3.8c-0.5-1.3-0.9-2.6-1.4-4
		c-0.9,2.6-1.8,5.2-2.7,7.7c-0.9,2.5-1.8,5.1-2.8,7.8H574L574,326z M590.9,327.1v14.6h-4.2V306h13.6c1.7,0,3.3,0.2,4.8,0.6
		c1.5,0.4,2.8,1,3.8,1.9c1.1,0.9,1.9,2,2.6,3.3c0.6,1.3,1,3,1,4.9c0,1.8-0.3,3.3-0.8,4.6c-0.6,1.3-1.3,2.3-2.3,3.2
		c-1,0.8-2.1,1.5-3.5,1.9c-1.3,0.4-2.7,0.7-4.3,0.8l11.5,14.6H608l-11.6-14.6H590.9L590.9,327.1z M600.3,323.2
		c1.2,0,2.3-0.1,3.3-0.3c1-0.2,1.8-0.6,2.5-1.1c0.7-0.5,1.2-1.2,1.6-2c0.4-0.8,0.6-1.9,0.6-3.1c0-1.2-0.2-2.3-0.6-3.1
		c-0.4-0.8-0.9-1.5-1.6-2c-0.7-0.5-1.5-0.9-2.5-1.1c-1-0.2-2-0.3-3.2-0.3h-9.4v13H600.3L600.3,323.2z M644,341.7h-4.4l-4.1-11.5
		h-13.8c-0.7,1.9-1.4,3.8-2,5.7c-0.7,1.9-1.4,3.8-2,5.7h-4.5L626,306h5.1L644,341.7L644,341.7z M634,326c-0.5-1.4-1-2.7-1.4-3.9
		c-0.4-1.2-0.9-2.5-1.3-3.7c-0.4-1.2-0.9-2.5-1.3-3.8c-0.5-1.3-0.9-2.6-1.4-4c-0.9,2.6-1.8,5.2-2.7,7.7c-0.9,2.5-1.8,5.1-2.8,7.8
		H634L634,326z M655.9,306h13.6c2,0,3.8,0.3,5.3,1c1.5,0.7,2.7,1.5,3.8,2.6c1,1.1,1.8,2.3,2.3,3.7c0.5,1.4,0.8,2.8,0.8,4.2
		c0,1.4-0.3,2.8-0.8,4.2c-0.5,1.4-1.3,2.6-2.3,3.6c-1,1.1-2.3,1.9-3.8,2.6c-1.5,0.7-3.2,1-5.2,1h-9.5v12.9h-4.2V306L655.9,306z
		 M669.5,324.6c1.3,0,2.5-0.2,3.5-0.6c1-0.4,1.8-0.9,2.5-1.6c0.7-0.7,1.1-1.4,1.5-2.3c0.3-0.9,0.5-1.7,0.5-2.6
		c0-0.9-0.2-1.8-0.5-2.6c-0.3-0.9-0.8-1.6-1.5-2.3c-0.7-0.7-1.5-1.2-2.4-1.6c-1-0.4-2.1-0.6-3.4-0.6h-9.4v14.4H669.5L669.5,324.6z
		 M689.8,327.1v14.6h-4.2V306h13.6c1.7,0,3.3,0.2,4.8,0.6c1.5,0.4,2.8,1,3.8,1.9c1.1,0.9,1.9,2,2.6,3.3c0.6,1.3,1,3,1,4.9
		c0,1.8-0.3,3.3-0.8,4.6c-0.6,1.3-1.3,2.3-2.3,3.2c-1,0.8-2.1,1.5-3.5,1.9c-1.3,0.4-2.7,0.7-4.3,0.8l11.5,14.6h-5.2l-11.6-14.6
		H689.8L689.8,327.1z M699.2,323.2c1.2,0,2.3-0.1,3.3-0.3c1-0.2,1.8-0.6,2.5-1.1c0.7-0.5,1.2-1.2,1.6-2c0.4-0.8,0.6-1.9,0.6-3.1
		c0-1.2-0.2-2.3-0.6-3.1c-0.4-0.8-0.9-1.5-1.6-2c-0.7-0.5-1.5-0.9-2.5-1.1c-1-0.2-2-0.3-3.2-0.3h-9.4v13H699.2L699.2,323.2z
		 M714.5,316.7c0-1.8,0.4-3.5,1.2-4.9c0.8-1.4,1.9-2.6,3.2-3.5c1.3-0.9,2.9-1.6,4.6-2.1c1.7-0.5,3.5-0.7,5.2-0.7
		c1.8,0,3.5,0.2,5.2,0.7c1.7,0.5,3.2,1.2,4.6,2.1c1.3,0.9,2.4,2.1,3.2,3.5c0.8,1.4,1.2,3,1.2,4.9v14.3c0,1.9-0.4,3.5-1.2,4.9
		c-0.8,1.4-1.9,2.6-3.2,3.5c-1.3,0.9-2.9,1.6-4.6,2.1c-1.7,0.5-3.5,0.7-5.2,0.7c-1.8,0-3.5-0.2-5.2-0.7c-1.7-0.5-3.2-1.2-4.6-2.1
		c-1.3-0.9-2.4-2.1-3.2-3.5c-0.8-1.4-1.2-3-1.2-4.9V316.7L714.5,316.7z M718.7,330.9c0,1.2,0.3,2.2,0.9,3.1c0.6,0.9,1.3,1.6,2.3,2.2
		c0.9,0.6,2,1,3.2,1.3c1.2,0.3,2.5,0.5,3.7,0.5c1.2,0,2.5-0.2,3.7-0.5c1.2-0.3,2.3-0.7,3.3-1.3c1-0.6,1.7-1.3,2.3-2.2
		c0.6-0.9,0.9-1.9,0.9-3.1v-14.2c0-1.2-0.3-2.3-0.9-3.2c-0.6-0.9-1.4-1.6-2.3-2.2c-0.9-0.6-2-1-3.3-1.3c-1.2-0.3-2.5-0.4-3.7-0.4
		c-1.3,0-2.5,0.1-3.7,0.4c-1.2,0.3-2.3,0.7-3.2,1.3c-0.9,0.6-1.7,1.3-2.3,2.2c-0.6,0.9-0.9,1.9-0.9,3.1V330.9L718.7,330.9z
		 M752.5,322.7h16.3v4.2h-16.3v14.7h-4.2V306h22.9v4.2h-18.6V322.7L752.5,322.7z M779.4,321.7h17.2v4.2h-17.2v11.5h18.7v4.2h-22.9
		V306h22.9v4.2h-18.7V321.7L779.4,321.7z M805.5,315.6c0,0.9,0.2,1.6,0.6,2.2c0.5,0.7,1.1,1.2,1.9,1.6c0.8,0.4,1.8,0.7,2.8,1
		c1.1,0.2,2.2,0.5,3.4,0.7c1.5,0.3,3.1,0.6,4.6,1c1.5,0.4,2.9,1,4.1,1.8c1.2,0.8,2.2,1.9,2.9,3.2c0.6,1.2,0.9,2.7,0.9,4.5
		c0,0.3,0,0.5,0,0.8c-0.1,1.6-0.5,3.1-1.3,4.3c-0.8,1.2-1.7,2.2-3,3.1c-1.2,0.8-2.6,1.4-4.1,1.8c-1.5,0.4-3.1,0.6-4.6,0.6
		c-1.3,0-2.7-0.2-4-0.5c-1.3-0.3-2.6-0.8-3.8-1.4c-1.2-0.6-2.2-1.4-3.2-2.4c-1-1-1.7-2.1-2.2-3.4l3.9-1.8c0.4,0.9,0.9,1.6,1.6,2.3
		c0.7,0.6,1.4,1.2,2.3,1.6c0.9,0.5,1.8,0.8,2.7,1c1,0.2,1.9,0.3,2.9,0.3c1,0,2.1-0.1,3.1-0.4c1-0.2,1.9-0.6,2.7-1.1
		c0.8-0.5,1.5-1.1,2-1.8c0.5-0.7,0.8-1.6,0.9-2.5c0-0.2,0.1-0.5,0.1-0.7c0-1-0.2-1.8-0.6-2.5c-0.5-0.8-1.2-1.5-2-2
		c-0.9-0.5-1.9-0.9-3.1-1.2c-1.2-0.3-2.4-0.6-3.6-0.8c-1.4-0.3-2.9-0.7-4.3-1.1c-1.4-0.4-2.7-1-3.8-1.7c-1.1-0.7-2-1.7-2.7-2.9
		c-0.7-1.2-1.1-2.6-1.1-4.4c0.1-1.5,0.5-2.9,1.3-4.1c0.7-1.2,1.7-2.2,2.9-3c1.2-0.8,2.5-1.4,3.9-1.8c1.5-0.4,3-0.6,4.5-0.6
		c1.3,0,2.6,0.2,4,0.5c1.3,0.3,2.6,0.8,3.7,1.4c1.2,0.6,2.2,1.4,3.2,2.3c0.9,0.9,1.7,2,2.2,3.3l-3.8,1.7c-0.4-0.8-0.9-1.6-1.5-2.2
		c-0.7-0.6-1.4-1.2-2.2-1.6c-0.8-0.4-1.7-0.8-2.6-1c-0.9-0.2-1.9-0.3-2.8-0.3c-1,0-2.1,0.1-3,0.4c-1,0.2-1.9,0.6-2.6,1.1
		c-0.8,0.5-1.4,1.1-1.9,1.8c-0.5,0.7-0.8,1.5-0.8,2.5C805.5,315.3,805.5,315.5,805.5,315.6L805.5,315.6z M835.7,341.7h-4.2V306h4.2
		V341.7L835.7,341.7z M840.8,316.7c0-1.8,0.4-3.5,1.2-4.9c0.8-1.4,1.9-2.6,3.2-3.5c1.3-0.9,2.9-1.6,4.6-2.1s3.5-0.7,5.2-0.7
		c1.8,0,3.5,0.2,5.2,0.7c1.7,0.5,3.2,1.2,4.6,2.1c1.3,0.9,2.4,2.1,3.2,3.5c0.8,1.4,1.2,3,1.2,4.9v14.3c0,1.9-0.4,3.5-1.2,4.9
		c-0.8,1.4-1.9,2.6-3.2,3.5c-1.3,0.9-2.9,1.6-4.6,2.1c-1.7,0.5-3.5,0.7-5.2,0.7c-1.8,0-3.5-0.2-5.2-0.7c-1.7-0.5-3.2-1.2-4.6-2.1
		c-1.3-0.9-2.4-2.1-3.2-3.5c-0.8-1.4-1.2-3-1.2-4.9V316.7L840.8,316.7z M845,330.9c0,1.2,0.3,2.2,0.9,3.1c0.6,0.9,1.3,1.6,2.3,2.2
		c0.9,0.6,2,1,3.2,1.3c1.2,0.3,2.5,0.5,3.7,0.5c1.2,0,2.5-0.2,3.7-0.5c1.2-0.3,2.3-0.7,3.3-1.3c1-0.6,1.7-1.3,2.3-2.2
		c0.6-0.9,0.9-1.9,0.9-3.1v-14.2c0-1.2-0.3-2.3-0.9-3.2c-0.6-0.9-1.4-1.6-2.3-2.2c-0.9-0.6-2-1-3.3-1.3c-1.2-0.3-2.5-0.4-3.7-0.4
		c-1.3,0-2.5,0.1-3.7,0.4c-1.2,0.3-2.3,0.7-3.2,1.3c-0.9,0.6-1.7,1.3-2.3,2.2c-0.6,0.9-0.9,1.9-0.9,3.1V330.9L845,330.9z M897.5,306
		h4.2v35.7h-5.3l-17.6-28.3v28.3h-4.2V306h4.5l18.4,29.5V306L897.5,306z M935.4,341.7h-4.4l-4.1-11.5H913c-0.7,1.9-1.4,3.8-2,5.7
		c-0.7,1.9-1.4,3.8-2,5.7h-4.5l12.8-35.7h5.1L935.4,341.7L935.4,341.7z M925.3,326c-0.5-1.4-1-2.7-1.4-3.9c-0.4-1.2-0.9-2.5-1.3-3.7
		c-0.4-1.2-0.9-2.5-1.3-3.8c-0.5-1.3-0.9-2.6-1.4-4c-0.9,2.6-1.8,5.2-2.7,7.7c-0.9,2.5-1.8,5.1-2.8,7.8H925.3L925.3,326z M938,306
		h4.2v31.5h17.2v4.2H938V306L938,306z M966.9,321.7h17.2v4.2h-17.2v11.5h18.7v4.2h-22.9V306h22.9v4.2h-18.7V321.7L966.9,321.7z
		 M993,315.6c0,0.9,0.2,1.6,0.6,2.2c0.5,0.7,1.1,1.2,1.9,1.6c0.8,0.4,1.8,0.7,2.8,1c1.1,0.2,2.2,0.5,3.4,0.7c1.5,0.3,3.1,0.6,4.6,1
		c1.5,0.4,2.9,1,4.1,1.8c1.2,0.8,2.2,1.9,2.9,3.2c0.6,1.2,0.9,2.7,0.9,4.5c0,0.3,0,0.5,0,0.8c-0.1,1.6-0.5,3.1-1.3,4.3
		c-0.8,1.2-1.7,2.2-2.9,3.1c-1.2,0.8-2.6,1.4-4.1,1.8c-1.5,0.4-3.1,0.6-4.6,0.6c-1.3,0-2.7-0.2-4-0.5c-1.3-0.3-2.6-0.8-3.8-1.4
		c-1.2-0.6-2.2-1.4-3.2-2.4c-1-1-1.7-2.1-2.2-3.4l3.9-1.8c0.4,0.9,0.9,1.6,1.6,2.3c0.7,0.6,1.4,1.2,2.3,1.6c0.9,0.5,1.8,0.8,2.7,1
		c1,0.2,1.9,0.3,2.9,0.3c1,0,2.1-0.1,3.1-0.4c1-0.2,1.9-0.6,2.7-1.1c0.8-0.5,1.5-1.1,2-1.8c0.5-0.7,0.8-1.6,0.9-2.5
		c0-0.2,0.1-0.5,0.1-0.7c0-1-0.2-1.8-0.6-2.5c-0.5-0.8-1.2-1.5-2-2c-0.9-0.5-1.9-0.9-3.1-1.2c-1.2-0.3-2.4-0.6-3.6-0.8
		c-1.4-0.3-2.9-0.7-4.3-1.1c-1.4-0.4-2.7-1-3.8-1.7c-1.1-0.7-2-1.7-2.7-2.9c-0.7-1.2-1.1-2.6-1.1-4.4c0.1-1.5,0.5-2.9,1.3-4.1
		c0.7-1.2,1.7-2.2,2.9-3c1.2-0.8,2.5-1.4,3.9-1.8c1.5-0.4,3-0.6,4.5-0.6c1.3,0,2.6,0.2,4,0.5c1.3,0.3,2.6,0.8,3.7,1.4
		c1.2,0.6,2.2,1.4,3.2,2.3c0.9,0.9,1.7,2,2.2,3.3l-3.8,1.7c-0.4-0.8-0.9-1.6-1.5-2.2c-0.7-0.6-1.4-1.2-2.2-1.6
		c-0.8-0.4-1.7-0.8-2.6-1c-0.9-0.2-1.9-0.3-2.8-0.3c-1,0-2.1,0.1-3,0.4c-1,0.2-1.9,0.6-2.6,1.1c-0.8,0.5-1.4,1.1-1.9,1.8
		c-0.5,0.7-0.8,1.5-0.8,2.5C993,315.3,993,315.5,993,315.6L993,315.6z M829.1,413.4c0,0.9,0.2,1.6,0.6,2.2c0.5,0.7,1.1,1.2,1.9,1.6
		c0.8,0.4,1.8,0.7,2.9,1c1.1,0.2,2.2,0.5,3.4,0.7c1.5,0.3,3.1,0.6,4.6,1c1.5,0.4,2.9,1,4.1,1.8c1.2,0.8,2.2,1.9,2.9,3.2
		c0.6,1.2,0.9,2.7,0.9,4.5c0,0.3,0,0.5,0,0.8c-0.1,1.6-0.5,3.1-1.3,4.3c-0.8,1.2-1.7,2.2-3,3.1c-1.2,0.8-2.6,1.4-4.1,1.8
		c-1.5,0.4-3.1,0.6-4.6,0.6c-1.3,0-2.7-0.2-4-0.5c-1.3-0.3-2.6-0.8-3.8-1.4c-1.2-0.6-2.2-1.4-3.2-2.4c-1-1-1.7-2.1-2.2-3.4l3.9-1.8
		c0.4,0.9,0.9,1.6,1.6,2.3c0.7,0.6,1.4,1.2,2.3,1.6c0.9,0.5,1.8,0.8,2.7,1c1,0.2,1.9,0.3,2.9,0.3c1,0,2.1-0.1,3.1-0.4
		c1-0.2,1.9-0.6,2.7-1.1c0.8-0.5,1.5-1.1,2-1.8c0.5-0.7,0.8-1.6,0.9-2.5c0-0.2,0-0.5,0-0.7c0-1-0.2-1.8-0.6-2.5
		c-0.5-0.8-1.2-1.5-2-2c-0.9-0.5-1.9-0.9-3.1-1.2c-1.2-0.3-2.4-0.6-3.6-0.8c-1.4-0.3-2.9-0.7-4.3-1.1c-1.4-0.4-2.7-1-3.8-1.7
		c-1.1-0.7-2-1.7-2.7-2.9c-0.7-1.2-1.1-2.6-1.1-4.4c0.1-1.5,0.5-2.9,1.3-4.1c0.7-1.2,1.7-2.2,2.8-3c1.2-0.8,2.5-1.4,3.9-1.8
		c1.5-0.4,3-0.6,4.5-0.6c1.3,0,2.6,0.2,4,0.5c1.3,0.3,2.6,0.8,3.7,1.4c1.2,0.6,2.2,1.4,3.2,2.3c0.9,0.9,1.7,2,2.2,3.3l-3.8,1.7
		c-0.4-0.8-0.9-1.6-1.5-2.2c-0.7-0.6-1.4-1.2-2.2-1.6c-0.8-0.4-1.7-0.8-2.7-1c-0.9-0.2-1.9-0.3-2.8-0.3c-1,0-2.1,0.1-3,0.4
		c-1,0.2-1.8,0.6-2.6,1.1c-0.8,0.5-1.4,1.1-1.9,1.8c-0.5,0.7-0.8,1.5-0.8,2.5C829.1,413.2,829.1,413.3,829.1,413.4L829.1,413.4z
		 M534.2,370.6h17.2v4.2h-17.2v11.5h18.7v4.2h-22.9v-35.7h22.9v4.2h-18.7V370.6L534.2,370.6z M580.4,354.9h4.2v35.7h-5.3l-17.6-28.3
		v28.3h-4.2v-35.7h4.5l18.4,29.5V354.9L580.4,354.9z M600.4,365.7c0-1.8,0.4-3.5,1.2-4.9c0.8-1.4,1.8-2.6,3.1-3.5
		c1.3-1,2.7-1.7,4.4-2.2c1.6-0.5,3.3-0.7,5-0.7c1.3,0,2.5,0.1,3.8,0.4c1.3,0.3,2.4,0.7,3.6,1.3c1.1,0.6,2.1,1.4,3,2.2
		c0.9,0.9,1.6,1.9,2.2,3.2l-3.8,1.8c-0.8-1.6-2.1-2.8-3.8-3.6c-1.7-0.8-3.4-1.2-5.2-1.2c-1.1,0-2.3,0.2-3.4,0.5
		c-1.1,0.3-2.1,0.7-3,1.3c-0.9,0.6-1.6,1.3-2.1,2.2c-0.5,0.9-0.8,1.9-0.8,3.1V380c0,1.2,0.3,2.2,0.8,3.1c0.5,0.9,1.2,1.6,2.1,2.1
		c0.9,0.6,1.8,1,3,1.3c1.1,0.3,2.2,0.4,3.4,0.4c1.8,0,3.6-0.4,5.3-1.2c1.7-0.8,2.9-2,3.7-3.6l3.8,1.8c-0.6,1.2-1.3,2.3-2.2,3.2
		c-0.9,0.9-2,1.7-3.1,2.3c-1.1,0.6-2.3,1.1-3.6,1.4c-1.3,0.3-2.6,0.5-3.8,0.5c-1.7,0-3.3-0.2-4.9-0.7c-1.6-0.5-3.1-1.2-4.3-2.1
		c-1.3-0.9-2.3-2.1-3.1-3.5c-0.8-1.4-1.2-3-1.2-4.9V365.7L600.4,365.7z M634.5,390.6h-4.2v-35.7h4.2V390.6L634.5,390.6z M645,370.6
		h17.2v4.2H645v11.5h18.7v4.2h-22.9v-35.7h22.9v4.2H645V370.6L645,370.6z M691.3,354.9h4.2v35.7h-5.3l-17.6-28.3v28.3h-4.2v-35.7
		h4.5l18.4,29.5V354.9L691.3,354.9z M700.7,365.7c0-1.8,0.4-3.5,1.2-4.9c0.8-1.4,1.8-2.6,3.1-3.5c1.3-1,2.7-1.7,4.4-2.2
		c1.6-0.5,3.3-0.7,5-0.7c1.3,0,2.5,0.1,3.8,0.4c1.3,0.3,2.4,0.7,3.6,1.3c1.1,0.6,2.1,1.4,3,2.2c0.9,0.9,1.6,1.9,2.2,3.2l-3.8,1.8
		c-0.8-1.6-2.1-2.8-3.8-3.6c-1.7-0.8-3.4-1.2-5.2-1.2c-1.1,0-2.3,0.2-3.4,0.5c-1.1,0.3-2.1,0.7-3,1.3c-0.9,0.6-1.6,1.3-2.1,2.2
		c-0.5,0.9-0.8,1.9-0.8,3.1V380c0,1.2,0.3,2.2,0.8,3.1c0.5,0.9,1.2,1.6,2.1,2.1c0.9,0.6,1.8,1,3,1.3c1.1,0.3,2.2,0.4,3.4,0.4
		c1.9,0,3.6-0.4,5.3-1.2c1.7-0.8,2.9-2,3.7-3.6l3.8,1.8c-0.6,1.2-1.3,2.3-2.2,3.2c-0.9,0.9-1.9,1.7-3.1,2.3
		c-1.1,0.6-2.3,1.1-3.6,1.4c-1.3,0.3-2.6,0.5-3.8,0.5c-1.7,0-3.3-0.2-4.9-0.7c-1.6-0.5-3.1-1.2-4.3-2.1c-1.3-0.9-2.3-2.1-3.1-3.5
		c-0.8-1.4-1.2-3-1.2-4.9V365.7L700.7,365.7z M734.8,390.6h-4.2v-35.7h4.2V390.6L734.8,390.6z M768.4,390.6h-4.4l-4.1-11.5H746
		c-0.7,1.9-1.4,3.8-2,5.7c-0.7,1.9-1.4,3.8-2,5.7h-4.5l12.8-35.7h5.1L768.4,390.6L768.4,390.6z M758.3,374.9c-0.5-1.4-1-2.7-1.4-3.9
		c-0.4-1.2-0.9-2.5-1.3-3.7c-0.4-1.2-0.9-2.5-1.3-3.8c-0.5-1.3-0.9-2.6-1.4-4c-0.9,2.6-1.8,5.2-2.7,7.7c-0.9,2.5-1.8,5.1-2.8,7.8
		H758.3L758.3,374.9z M773.3,364.5c0,0.9,0.2,1.6,0.6,2.2c0.5,0.7,1.1,1.2,1.9,1.6c0.8,0.4,1.8,0.7,2.8,1c1.1,0.2,2.2,0.5,3.4,0.7
		c1.5,0.3,3.1,0.6,4.6,1c1.5,0.4,2.9,1,4.1,1.8c1.2,0.8,2.2,1.9,2.9,3.2c0.6,1.2,0.9,2.7,0.9,4.5c0,0.3,0,0.5,0,0.8
		c-0.1,1.6-0.5,3.1-1.3,4.3c-0.8,1.2-1.7,2.2-2.9,3.1c-1.2,0.8-2.6,1.4-4.1,1.8c-1.5,0.4-3.1,0.6-4.6,0.6c-1.3,0-2.7-0.2-4-0.5
		c-1.3-0.3-2.6-0.8-3.8-1.4c-1.2-0.6-2.2-1.4-3.2-2.4c-1-1-1.7-2.1-2.2-3.4l3.9-1.8c0.4,0.9,0.9,1.6,1.6,2.3
		c0.7,0.6,1.4,1.2,2.3,1.6c0.9,0.5,1.8,0.8,2.7,1c1,0.2,1.9,0.3,2.9,0.3c1,0,2.1-0.1,3.1-0.4c1-0.2,1.9-0.6,2.7-1.1
		c0.8-0.5,1.5-1.1,2-1.8c0.5-0.7,0.8-1.6,0.9-2.5c0-0.2,0-0.5,0-0.7c0-1-0.2-1.8-0.6-2.5c-0.5-0.8-1.2-1.5-2-2
		c-0.9-0.5-1.9-0.9-3.1-1.2c-1.2-0.3-2.4-0.6-3.6-0.8c-1.4-0.3-2.9-0.7-4.3-1.1c-1.4-0.4-2.7-1-3.8-1.7c-1.1-0.7-2-1.7-2.7-2.9
		c-0.7-1.2-1.1-2.6-1.1-4.4c0.1-1.5,0.5-2.9,1.3-4.1c0.7-1.2,1.7-2.2,2.8-3c1.2-0.8,2.5-1.4,3.9-1.8c1.5-0.4,3-0.6,4.5-0.6
		c1.3,0,2.6,0.2,4,0.5c1.3,0.3,2.6,0.8,3.7,1.4c1.2,0.6,2.2,1.4,3.2,2.3c0.9,0.9,1.7,2,2.2,3.3l-3.8,1.7c-0.4-0.8-0.9-1.6-1.5-2.2
		c-0.7-0.6-1.4-1.2-2.2-1.6c-0.8-0.4-1.7-0.8-2.6-1c-0.9-0.2-1.9-0.3-2.8-0.3c-1,0-2.1,0.1-3,0.4c-1,0.2-1.8,0.6-2.6,1.1
		c-0.8,0.5-1.4,1.1-1.9,1.8c-0.5,0.7-0.8,1.5-0.8,2.5C773.3,364.2,773.3,364.4,773.3,364.5L773.3,364.5z M814.1,370.6h17.2v4.2
		h-17.2v11.5h18.7v4.2h-22.9v-35.7h22.9v4.2h-18.7V370.6L814.1,370.6z M836,365.7c0-1.8,0.4-3.5,1.2-4.9c0.8-1.4,1.8-2.6,3.1-3.5
		c1.3-1,2.7-1.7,4.4-2.2c1.6-0.5,3.3-0.7,5-0.7c1.3,0,2.5,0.1,3.8,0.4c1.3,0.3,2.4,0.7,3.6,1.3c1.1,0.6,2.1,1.4,3,2.2
		c0.9,0.9,1.6,1.9,2.2,3.2l-3.8,1.8c-0.8-1.6-2.1-2.8-3.8-3.6c-1.7-0.8-3.4-1.2-5.2-1.2c-1.1,0-2.3,0.2-3.4,0.5
		c-1.1,0.3-2.1,0.7-3,1.3c-0.9,0.6-1.6,1.3-2.1,2.2c-0.5,0.9-0.8,1.9-0.8,3.1V380c0,1.2,0.3,2.2,0.8,3.1c0.5,0.9,1.2,1.6,2.1,2.1
		c0.9,0.6,1.8,1,3,1.3c1.1,0.3,2.2,0.4,3.4,0.4c1.9,0,3.6-0.4,5.3-1.2c1.7-0.8,2.9-2,3.7-3.6l3.8,1.8c-0.6,1.2-1.3,2.3-2.2,3.2
		c-0.9,0.9-2,1.7-3.1,2.3c-1.1,0.6-2.3,1.1-3.6,1.4c-1.3,0.3-2.6,0.5-3.8,0.5c-1.7,0-3.3-0.2-4.9-0.7c-1.6-0.5-3.1-1.2-4.3-2.1
		c-1.3-0.9-2.3-2.1-3.1-3.5c-0.8-1.4-1.2-3-1.2-4.9V365.7L836,365.7z M864.8,365.6c0-1.8,0.4-3.5,1.2-4.9c0.8-1.4,1.9-2.6,3.2-3.5
		c1.3-0.9,2.9-1.6,4.6-2.1c1.7-0.5,3.5-0.7,5.2-0.7c1.8,0,3.5,0.2,5.2,0.7c1.7,0.5,3.2,1.2,4.6,2.1c1.3,0.9,2.4,2.1,3.2,3.5
		c0.8,1.4,1.2,3,1.2,4.9v14.3c0,1.9-0.4,3.5-1.2,4.9c-0.8,1.4-1.9,2.6-3.2,3.5c-1.3,0.9-2.9,1.6-4.6,2.1c-1.7,0.5-3.5,0.7-5.2,0.7
		c-1.8,0-3.5-0.2-5.2-0.7c-1.7-0.5-3.2-1.2-4.6-2.1c-1.3-0.9-2.4-2.1-3.2-3.5c-0.8-1.4-1.2-3-1.2-4.9V365.6L864.8,365.6z M869,379.8
		c0,1.2,0.3,2.2,0.9,3.1c0.6,0.9,1.3,1.6,2.3,2.2c0.9,0.6,2,1,3.2,1.3c1.2,0.3,2.5,0.5,3.7,0.5c1.2,0,2.5-0.2,3.7-0.5
		c1.2-0.3,2.3-0.7,3.3-1.3c1-0.6,1.7-1.3,2.3-2.2c0.6-0.9,0.9-1.9,0.9-3.1v-14.2c0-1.2-0.3-2.3-0.9-3.2c-0.6-0.9-1.4-1.6-2.3-2.2
		c-0.9-0.6-2-1-3.3-1.3c-1.2-0.3-2.5-0.4-3.7-0.4c-1.3,0-2.5,0.1-3.7,0.4c-1.2,0.3-2.3,0.7-3.2,1.3c-0.9,0.6-1.7,1.3-2.3,2.2
		c-0.6,0.9-0.9,1.9-0.9,3.1V379.8L869,379.8z M921.5,354.9h4.2v35.7h-5.3l-17.6-28.3v28.3h-4.2v-35.7h4.5l18.4,29.5V354.9
		L921.5,354.9z"/>
	<path class="st4" d="M951.8,345.8l-5.1,6.7h-4.4l4.3-6.7H951.8L951.8,345.8z M931,365.6c0-1.8,0.4-3.5,1.2-4.9
		c0.8-1.4,1.9-2.6,3.2-3.5c1.3-0.9,2.9-1.6,4.6-2.1c1.7-0.5,3.5-0.7,5.2-0.7c1.8,0,3.5,0.2,5.2,0.7c1.7,0.5,3.2,1.2,4.6,2.1
		c1.3,0.9,2.4,2.1,3.2,3.5c0.8,1.4,1.2,3,1.2,4.9v14.3c0,1.9-0.4,3.5-1.2,4.9c-0.8,1.4-1.9,2.6-3.2,3.5c-1.3,0.9-2.9,1.6-4.6,2.1
		c-1.7,0.5-3.5,0.7-5.2,0.7c-1.8,0-3.5-0.2-5.2-0.7c-1.7-0.5-3.2-1.2-4.6-2.1c-1.3-0.9-2.4-2.1-3.2-3.5c-0.8-1.4-1.2-3-1.2-4.9
		V365.6L931,365.6z M935.1,379.8c0,1.2,0.3,2.2,0.9,3.1c0.6,0.9,1.3,1.6,2.3,2.2c0.9,0.6,2,1,3.2,1.3c1.2,0.3,2.5,0.5,3.7,0.5
		c1.2,0,2.5-0.2,3.7-0.5c1.2-0.3,2.3-0.7,3.3-1.3c1-0.6,1.7-1.3,2.3-2.2c0.6-0.9,0.9-1.9,0.9-3.1v-14.2c0-1.2-0.3-2.3-0.9-3.2
		c-0.6-0.9-1.4-1.6-2.3-2.2c-0.9-0.6-2-1-3.3-1.3c-1.2-0.3-2.5-0.4-3.7-0.4c-1.3,0-2.5,0.1-3.7,0.4c-1.2,0.3-2.3,0.7-3.2,1.3
		c-0.9,0.6-1.7,1.3-2.3,2.2c-0.6,0.9-0.9,1.9-0.9,3.1V379.8L935.1,379.8z M969,390.6h-4.2v-35.7h5.3l11,24.9l11-24.9h5.3v35.7h-4.2
		v-27.8l-10.3,23.1h-3.6L969,362.9V390.6L969,390.6z M1007.9,390.6h-4.2v-35.7h4.2V390.6L1007.9,390.6z M1013.1,365.7
		c0-1.8,0.4-3.5,1.2-4.9c0.8-1.4,1.8-2.6,3.1-3.5c1.3-1,2.7-1.7,4.4-2.2c1.6-0.5,3.3-0.7,5-0.7c1.3,0,2.5,0.1,3.8,0.4
		c1.3,0.3,2.4,0.7,3.6,1.3c1.1,0.6,2.1,1.4,3,2.2c0.9,0.9,1.6,1.9,2.2,3.2l-3.8,1.8c-0.8-1.6-2.1-2.8-3.8-3.6
		c-1.7-0.8-3.4-1.2-5.2-1.2c-1.1,0-2.3,0.2-3.4,0.5c-1.1,0.3-2.1,0.7-3,1.3c-0.9,0.6-1.6,1.3-2.1,2.2c-0.5,0.9-0.8,1.9-0.8,3.1V380
		c0,1.2,0.3,2.2,0.8,3.1c0.5,0.9,1.2,1.6,2.1,2.1c0.9,0.6,1.8,1,3,1.3c1.1,0.3,2.2,0.4,3.4,0.4c1.9,0,3.6-0.4,5.3-1.2
		c1.7-0.8,2.9-2,3.7-3.6l3.8,1.8c-0.6,1.2-1.3,2.3-2.2,3.2c-0.9,0.9-2,1.7-3.1,2.3c-1.1,0.6-2.3,1.1-3.6,1.4
		c-1.3,0.3-2.6,0.5-3.8,0.5c-1.7,0-3.3-0.2-4.9-0.7c-1.6-0.5-3.1-1.2-4.3-2.1c-1.3-0.9-2.3-2.1-3.1-3.5c-0.8-1.4-1.2-3-1.2-4.9
		V365.7L1013.1,365.7z M1070.3,390.6h-4.4l-4.1-11.5H1048c-0.7,1.9-1.4,3.8-2,5.7c-0.7,1.9-1.4,3.8-2,5.7h-4.5l12.8-35.7h5.1
		L1070.3,390.6L1070.3,390.6z M1060.3,374.9c-0.5-1.4-1-2.7-1.4-3.9c-0.4-1.2-0.9-2.5-1.3-3.7c-0.4-1.2-0.9-2.5-1.3-3.8
		c-0.5-1.3-0.9-2.6-1.4-4c-0.9,2.6-1.8,5.2-2.7,7.7c-0.9,2.5-1.8,5.1-2.8,7.8H1060.3L1060.3,374.9z M1075.2,364.5
		c0,0.9,0.2,1.6,0.6,2.2c0.5,0.7,1.1,1.2,1.9,1.6c0.8,0.4,1.8,0.7,2.8,1c1.1,0.2,2.2,0.5,3.4,0.7c1.5,0.3,3.1,0.6,4.6,1
		c1.5,0.4,2.9,1,4.1,1.8c1.2,0.8,2.2,1.9,2.9,3.2c0.6,1.2,0.9,2.7,0.9,4.5c0,0.3,0,0.5,0,0.8c-0.1,1.6-0.5,3.1-1.3,4.3
		c-0.8,1.2-1.7,2.2-3,3.1c-1.2,0.8-2.6,1.4-4.1,1.8c-1.5,0.4-3.1,0.6-4.6,0.6c-1.3,0-2.7-0.2-4-0.5c-1.3-0.3-2.6-0.8-3.8-1.4
		c-1.2-0.6-2.2-1.4-3.2-2.4c-1-1-1.7-2.1-2.2-3.4l3.9-1.8c0.4,0.9,0.9,1.6,1.6,2.3c0.7,0.6,1.4,1.2,2.3,1.6c0.9,0.5,1.8,0.8,2.7,1
		c1,0.2,1.9,0.3,2.9,0.3c1,0,2.1-0.1,3.1-0.4c1-0.2,1.9-0.6,2.7-1.1c0.8-0.5,1.5-1.1,2-1.8c0.5-0.7,0.8-1.6,0.9-2.5
		c0-0.2,0.1-0.5,0.1-0.7c0-1-0.2-1.8-0.6-2.5c-0.5-0.8-1.2-1.5-2-2c-0.9-0.5-1.9-0.9-3.1-1.2c-1.2-0.3-2.4-0.6-3.6-0.8
		c-1.4-0.3-2.9-0.7-4.3-1.1c-1.4-0.4-2.7-1-3.8-1.7c-1.1-0.7-2-1.7-2.7-2.9c-0.7-1.2-1.1-2.6-1.1-4.4c0.1-1.5,0.5-2.9,1.3-4.1
		c0.7-1.2,1.7-2.2,2.8-3c1.2-0.8,2.5-1.4,3.9-1.8c1.5-0.4,3-0.6,4.5-0.6c1.3,0,2.6,0.2,4,0.5c1.3,0.3,2.6,0.8,3.7,1.4
		c1.2,0.6,2.2,1.4,3.2,2.3c0.9,0.9,1.7,2,2.2,3.3l-3.8,1.7c-0.4-0.8-0.9-1.6-1.5-2.2c-0.7-0.6-1.4-1.2-2.2-1.6
		c-0.8-0.4-1.7-0.8-2.6-1c-0.9-0.2-1.9-0.3-2.8-0.3c-1,0-2.1,0.1-3,0.4c-1,0.2-1.8,0.6-2.6,1.1c-0.8,0.5-1.4,1.1-1.9,1.8
		c-0.5,0.7-0.8,1.5-0.8,2.5C1075.2,364.2,1075.2,364.4,1075.2,364.5L1075.2,364.5z M542,403.8c1.7,0,3.4,0.2,5,0.6
		c1.6,0.4,3.1,1,4.3,1.9c1.3,0.9,2.3,2,3.1,3.4c0.8,1.4,1.2,3,1.2,4.9v14.3c0,1.9-0.4,3.5-1.2,4.8c-0.8,1.3-1.8,2.5-3.1,3.3
		c-1.3,0.9-2.7,1.5-4.3,1.9c-1.6,0.4-3.3,0.6-5,0.6h-12.1v-35.7H542L542,403.8z M542,435.3c1.2,0,2.3-0.1,3.4-0.4
		c1.1-0.2,2.1-0.6,3-1.1c0.9-0.5,1.6-1.2,2.1-2c0.5-0.8,0.8-1.8,0.8-3v-14.3c0-1.2-0.3-2.2-0.8-3c-0.5-0.8-1.2-1.5-2.1-2
		c-0.9-0.5-1.9-0.9-3-1.1c-1.1-0.2-2.3-0.4-3.4-0.4h-7.9v27.2H542L542,435.3z M565.1,419.5h17.2v4.2h-17.2v11.5h18.7v4.2h-22.9
		v-35.7h22.9v4.2h-18.7V419.5L565.1,419.5z M602.1,419.5h17.2v4.2h-17.2v11.5h18.7v4.2h-22.9v-35.7h22.9v4.2h-18.7V419.5
		L602.1,419.5z M648.3,403.8h4.2v35.7h-5.3l-17.6-28.3v28.3h-4.2v-35.7h4.5l18.4,29.5V403.8L648.3,403.8z M671.5,408v31.5h-4.2V408
		h-11.5v-4.2h27.1v4.2H671.5L671.5,408z M690.4,424.9v14.6h-4.2v-35.7h13.6c1.7,0,3.3,0.2,4.8,0.6c1.5,0.4,2.8,1,3.8,1.9
		c1.1,0.9,1.9,2,2.6,3.3c0.6,1.3,1,3,1,4.9c0,1.8-0.3,3.3-0.8,4.6c-0.6,1.3-1.3,2.3-2.3,3.2c-1,0.8-2.1,1.5-3.5,1.9
		c-1.3,0.4-2.7,0.7-4.3,0.8l11.5,14.6h-5.2l-11.6-14.6H690.4L690.4,424.9z M699.8,421c1.2,0,2.3-0.1,3.3-0.3c1-0.2,1.8-0.6,2.5-1.1
		c0.7-0.5,1.2-1.2,1.6-2c0.4-0.8,0.6-1.9,0.6-3.1c0-1.2-0.2-2.3-0.6-3.1c-0.4-0.8-0.9-1.5-1.6-2c-0.7-0.5-1.5-0.9-2.5-1.1
		c-1-0.2-2-0.3-3.2-0.3h-9.4v13H699.8L699.8,421z M720.4,419.5h17.2v4.2h-17.2v11.5h18.7v4.2h-22.9v-35.7h22.9v4.2h-18.7V419.5
		L720.4,419.5z M757.4,424.9v14.6h-4.2v-35.7h13.6c1.7,0,3.3,0.2,4.8,0.6c1.5,0.4,2.8,1,3.8,1.9c1.1,0.9,1.9,2,2.6,3.3
		c0.6,1.3,1,3,1,4.9c0,1.8-0.3,3.3-0.8,4.6c-0.6,1.3-1.3,2.3-2.3,3.2c-1,0.8-2.1,1.5-3.5,1.9c-1.3,0.4-2.7,0.7-4.3,0.8l11.5,14.6
		h-5.2l-11.6-14.6H757.4L757.4,424.9z M766.8,421c1.2,0,2.3-0.1,3.3-0.3c1-0.2,1.8-0.6,2.5-1.1c0.7-0.5,1.2-1.2,1.6-2
		c0.4-0.8,0.6-1.9,0.6-3.1c0-1.2-0.2-2.3-0.6-3.1c-0.4-0.8-0.9-1.5-1.6-2c-0.7-0.5-1.5-0.9-2.5-1.1c-1-0.2-2-0.3-3.2-0.3h-9.4v13
		H766.8L766.8,421z M791.9,394.7l-5.1,6.7h-4.4l4.3-6.7H791.9L791.9,394.7z M787.3,439.5h-4.2v-35.7h4.2V439.5L787.3,439.5z
		 M792.5,414.5c0-1.8,0.4-3.5,1.2-4.9c0.8-1.4,1.9-2.6,3.2-3.5c1.3-0.9,2.9-1.6,4.6-2.1c1.7-0.5,3.5-0.7,5.2-0.7
		c1.8,0,3.5,0.2,5.2,0.7c1.7,0.5,3.2,1.2,4.6,2.1c1.3,0.9,2.4,2.1,3.2,3.5c0.8,1.4,1.2,3,1.2,4.9v14.3c0,1.9-0.4,3.5-1.2,4.9
		c-0.8,1.4-1.9,2.6-3.2,3.5c-1.3,0.9-2.8,1.6-4.6,2.1c-1.7,0.5-3.5,0.7-5.2,0.7c-1.8,0-3.5-0.2-5.2-0.7c-1.7-0.5-3.2-1.2-4.6-2.1
		c-1.3-0.9-2.4-2.1-3.2-3.5c-0.8-1.4-1.2-3-1.2-4.9V414.5L792.5,414.5z M796.7,428.7c0,1.2,0.3,2.2,0.9,3.1c0.6,0.9,1.3,1.6,2.3,2.2
		c0.9,0.6,2,1,3.2,1.3c1.2,0.3,2.5,0.5,3.7,0.5c1.2,0,2.5-0.2,3.7-0.5c1.2-0.3,2.3-0.7,3.3-1.3c1-0.6,1.7-1.3,2.3-2.2
		c0.6-0.9,0.9-1.9,0.9-3.1v-14.2c0-1.2-0.3-2.3-0.9-3.2c-0.6-0.9-1.4-1.6-2.3-2.2c-0.9-0.6-2-1-3.3-1.3c-1.2-0.3-2.5-0.4-3.7-0.4
		c-1.3,0-2.5,0.1-3.7,0.4c-1.2,0.3-2.3,0.7-3.2,1.3c-0.9,0.6-1.7,1.3-2.3,2.2c-0.6,0.9-0.9,1.9-0.9,3.1V428.7L796.7,428.7z"/>
</g>
</svg>
